<svg xmlns="http://www.w3.org/2000/svg" viewBox="0 0 700 700"><defs><linearGradient id="g" x1="0" y1="0" x2="1" y2="1"><stop offset="0" stop-color="#fff"/><stop offset=".45" stop-color="#c7c7c7"/><stop offset=".46" stop-color="#f4b400"/><stop offset="1" stop-color="#ffd84a"/></linearGradient><linearGradient id="gold" x1="0" y1="0" x2="1" y2="1"><stop stop-color="#fff0a0"/><stop offset=".4" stop-color="#f4b400"/><stop offset="1" stop-color="#9b5b00"/></linearGradient></defs><circle cx="350" cy="350" r="325" fill="#090909" stroke="#9b650b" stroke-width="12"/><circle cx="350" cy="350" r="306" fill="none" stroke="url(#gold)" stroke-width="5"/><path d="M165 150h170l-55 68h-55l-48 188h-82z" fill="url(#g)"/><path d="M395 150l-92 116 62-16-87 145h80l47-83 82-25-56-30 81-110z" fill="url(#gold)"/><path d="M375 370l-68 98h205l-72-58h-52z" fill="url(#g)"/><text x="350" y="535" text-anchor="middle" fill="url(#gold)" font-family="Arial,Helvetica,sans-serif" font-size="62" font-weight="900" letter-spacing="8">LOOTRUSH</text><path d="M190 575h320" stroke="url(#gold)" stroke-width="4"/><path d="M320 590l30-34 30 34-30 44z" fill="url(#gold)"/></svg>